<?xml version="1.0" encoding="UTF-8" standalone="no"?>
<!DOCTYPE svg PUBLIC "-//W3C//DTD SVG 1.1//EN"
 "http://www.w3.org/Graphics/SVG/1.1/DTD/svg11.dtd">
<!-- Generated by graphviz version 2.40.1 (20161225.0304)
 -->
<!-- Title: G Pages: 1 -->
<svg width="744pt" height="339pt"
 viewBox="0.00 0.00 743.89 339.20" xmlns="http://www.w3.org/2000/svg" xmlns:xlink="http://www.w3.org/1999/xlink">
<g id="graph0" class="graph" transform="scale(1 1) rotate(0) translate(4 335.2)">
<title>G</title>
<polygon fill="#ffffff" stroke="transparent" points="-4,4 -4,-335.2 739.8893,-335.2 739.8893,4 -4,4"/>
<!-- n18 -->
<g id="node1" class="node">
<title>n18</title>
<ellipse fill="#000000" stroke="#000000" cx="189.2941" cy="-329.4" rx="1.8" ry="1.8"/>
</g>
<!-- n16 -->
<g id="node2" class="node">
<title>n16</title>
<ellipse fill="#000000" stroke="#000000" cx="152.2941" cy="-289.8" rx="1.8" ry="1.8"/>
</g>
<!-- n18&#45;&gt;n16 -->
<g id="edge1" class="edge">
<title>n18&#45;&gt;n16</title>
<path fill="none" stroke="#000000" d="M188.0631,-328.0824C183.8499,-323.5732 169.7621,-308.4955 160.5746,-298.6624"/>
<polygon fill="#000000" stroke="#000000" points="162.9523,-296.0805 153.5677,-291.1631 157.8375,-300.8595 162.9523,-296.0805"/>
</g>
<!-- n17 -->
<g id="node9" class="node">
<title>n17</title>
<ellipse fill="#000000" stroke="#000000" cx="289.2941" cy="-289.8" rx="1.8" ry="1.8"/>
</g>
<!-- n18&#45;&gt;n17 -->
<g id="edge8" class="edge">
<title>n18&#45;&gt;n17</title>
<path fill="none" stroke="#000000" d="M191.0298,-328.7127C201.3185,-324.6383 254.6548,-303.5172 278.1546,-294.2113"/>
<polygon fill="#000000" stroke="#000000" points="279.5018,-297.4423 287.5107,-290.5063 276.9244,-290.934 279.5018,-297.4423"/>
</g>
<!-- n5 -->
<g id="node3" class="node">
<title>n5</title>
<ellipse fill="none" stroke="#000000" cx="66.2941" cy="-234" rx="66.0889" ry="18"/>
<text text-anchor="middle" x="66.2941" y="-230.3" font-family="Times,serif" font-size="14.00" fill="#000000">160.0 180.0</text>
</g>
<!-- n16&#45;&gt;n5 -->
<g id="edge2" class="edge">
<title>n16&#45;&gt;n5</title>
<path fill="none" stroke="#000000" d="M150.4979,-288.6345C143.9973,-284.4167 121.0104,-269.502 100.694,-256.3199"/>
<polygon fill="#000000" stroke="#000000" points="102.5003,-253.3197 92.2063,-250.8128 98.6901,-259.192 102.5003,-253.3197"/>
</g>
<!-- n14 -->
<g id="node4" class="node">
<title>n14</title>
<ellipse fill="#000000" stroke="#000000" cx="152.2941" cy="-234" rx="1.8" ry="1.8"/>
</g>
<!-- n16&#45;&gt;n14 -->
<g id="edge3" class="edge">
<title>n16&#45;&gt;n14</title>
<path fill="none" stroke="#000000" d="M152.2941,-287.9434C152.2941,-281.5233 152.2941,-259.8994 152.2941,-246.0573"/>
<polygon fill="#000000" stroke="#000000" points="155.7942,-245.9207 152.2941,-235.9208 148.7942,-245.9208 155.7942,-245.9207"/>
</g>
<!-- n8 -->
<g id="node5" class="node">
<title>n8</title>
<ellipse fill="none" stroke="#000000" cx="66.2941" cy="-162" rx="66.0889" ry="18"/>
<text text-anchor="middle" x="66.2941" y="-158.3" font-family="Times,serif" font-size="14.00" fill="#000000">180.0 140.0</text>
</g>
<!-- n14&#45;&gt;n8 -->
<g id="edge4" class="edge">
<title>n14&#45;&gt;n8</title>
<path fill="none" stroke="#000000" d="M151.4718,-232.1543C149.8721,-228.7031 146.0751,-221.1562 141.2941,-216 130.1079,-203.936 115.8502,-192.8728 102.7762,-183.9442"/>
<polygon fill="#000000" stroke="#000000" points="104.6696,-181.0002 94.3998,-178.396 100.8041,-186.8361 104.6696,-181.0002"/>
</g>
<!-- n11 -->
<g id="node6" class="node">
<title>n11</title>
<ellipse fill="#000000" stroke="#000000" cx="152.2941" cy="-162" rx="1.8" ry="1.8"/>
</g>
<!-- n14&#45;&gt;n11 -->
<g id="edge5" class="edge">
<title>n14&#45;&gt;n11</title>
<path fill="none" stroke="#000000" d="M152.2941,-231.9228C152.2941,-223.5445 152.2941,-191.8387 152.2941,-174.1373"/>
<polygon fill="#000000" stroke="#000000" points="155.7942,-173.9491 152.2941,-163.9491 148.7942,-173.9492 155.7942,-173.9491"/>
</g>
<!-- n6 -->
<g id="node7" class="node">
<title>n6</title>
<ellipse fill="none" stroke="#000000" cx="76.2941" cy="-90" rx="66.0889" ry="18"/>
<text text-anchor="middle" x="76.2941" y="-86.3" font-family="Times,serif" font-size="14.00" fill="#000000">170.0 160.0</text>
</g>
<!-- n11&#45;&gt;n6 -->
<g id="edge6" class="edge">
<title>n11&#45;&gt;n6</title>
<path fill="none" stroke="#000000" d="M151.4378,-160.1847C149.7815,-156.7842 145.8939,-149.3185 141.2941,-144 131.5637,-132.7492 119.3448,-121.9398 108.1351,-112.987"/>
<polygon fill="#000000" stroke="#000000" points="110.2434,-110.1928 100.201,-106.8163 105.9459,-115.7183 110.2434,-110.1928"/>
</g>
<!-- n7 -->
<g id="node8" class="node">
<title>n7</title>
<ellipse fill="none" stroke="#000000" cx="227.2941" cy="-90" rx="66.0889" ry="18"/>
<text text-anchor="middle" x="227.2941" y="-86.3" font-family="Times,serif" font-size="14.00" fill="#000000">170.0 150.0</text>
</g>
<!-- n11&#45;&gt;n7 -->
<g id="edge7" class="edge">
<title>n11&#45;&gt;n7</title>
<path fill="none" stroke="#000000" d="M153.0351,-160.1781C154.4784,-156.7667 157.9127,-149.2834 162.2941,-144 171.714,-132.6408 183.7662,-121.8714 194.928,-112.9819"/>
<polygon fill="#000000" stroke="#000000" points="197.0767,-115.7448 202.8478,-106.8597 192.7955,-110.2066 197.0767,-115.7448"/>
</g>
<!-- n13 -->
<g id="node10" class="node">
<title>n13</title>
<ellipse fill="#000000" stroke="#000000" cx="289.2941" cy="-234" rx="1.8" ry="1.8"/>
</g>
<!-- n17&#45;&gt;n13 -->
<g id="edge9" class="edge">
<title>n17&#45;&gt;n13</title>
<path fill="none" stroke="#000000" d="M289.2941,-287.9434C289.2941,-281.5233 289.2941,-259.8994 289.2941,-246.0573"/>
<polygon fill="#000000" stroke="#000000" points="292.7942,-245.9207 289.2941,-235.9208 285.7942,-245.9208 292.7942,-245.9207"/>
</g>
<!-- n15 -->
<g id="node13" class="node">
<title>n15</title>
<ellipse fill="#000000" stroke="#000000" cx="492.2941" cy="-234" rx="1.8" ry="1.8"/>
</g>
<!-- n17&#45;&gt;n15 -->
<g id="edge12" class="edge">
<title>n17&#45;&gt;n15</title>
<path fill="none" stroke="#000000" d="M291.0491,-289.3176C307.7972,-284.7139 439.6642,-248.4668 480.369,-237.2779"/>
<polygon fill="#000000" stroke="#000000" points="481.5373,-240.5867 490.252,-234.5613 479.682,-233.837 481.5373,-240.5867"/>
</g>
<!-- n1 -->
<g id="node11" class="node">
<title>n1</title>
<ellipse fill="none" stroke="#000000" cx="226.2941" cy="-162" rx="54.6905" ry="18"/>
<text text-anchor="middle" x="226.2941" y="-158.3" font-family="Times,serif" font-size="14.00" fill="#000000">40.0 50.0</text>
</g>
<!-- n13&#45;&gt;n1 -->
<g id="edge10" class="edge">
<title>n13&#45;&gt;n1</title>
<path fill="none" stroke="#000000" d="M287.9783,-232.4962C282.891,-226.6821 264.0205,-205.1159 248.4764,-187.3512"/>
<polygon fill="#000000" stroke="#000000" points="250.8492,-184.7479 241.6301,-179.5269 245.5812,-189.3574 250.8492,-184.7479"/>
</g>
<!-- n4 -->
<g id="node12" class="node">
<title>n4</title>
<ellipse fill="none" stroke="#000000" cx="353.2941" cy="-162" rx="54.6905" ry="18"/>
<text text-anchor="middle" x="353.2941" y="-158.3" font-family="Times,serif" font-size="14.00" fill="#000000">60.0 45.0</text>
</g>
<!-- n13&#45;&gt;n4 -->
<g id="edge11" class="edge">
<title>n13&#45;&gt;n4</title>
<path fill="none" stroke="#000000" d="M290.6308,-232.4962C295.7989,-226.6821 314.9689,-205.1159 330.7597,-187.3512"/>
<polygon fill="#000000" stroke="#000000" points="333.687,-189.3263 337.7147,-179.5269 328.4551,-184.6757 333.687,-189.3263"/>
</g>
<!-- n9 -->
<g id="node14" class="node">
<title>n9</title>
<ellipse fill="none" stroke="#000000" cx="492.2941" cy="-162" rx="66.0889" ry="18"/>
<text text-anchor="middle" x="492.2941" y="-158.3" font-family="Times,serif" font-size="14.00" fill="#000000">120.0 100.0</text>
</g>
<!-- n15&#45;&gt;n9 -->
<g id="edge13" class="edge">
<title>n15&#45;&gt;n9</title>
<path fill="none" stroke="#000000" d="M492.2941,-231.9228C492.2941,-225.7569 492.2941,-206.9566 492.2941,-190.4022"/>
<polygon fill="#000000" stroke="#000000" points="495.7942,-190.0032 492.2941,-180.0032 488.7942,-190.0032 495.7942,-190.0032"/>
</g>
<!-- n12 -->
<g id="node15" class="node">
<title>n12</title>
<ellipse fill="#000000" stroke="#000000" cx="578.2941" cy="-162" rx="1.8" ry="1.8"/>
</g>
<!-- n15&#45;&gt;n12 -->
<g id="edge14" class="edge">
<title>n15&#45;&gt;n12</title>
<path fill="none" stroke="#000000" d="M493.8968,-233.166C502.3622,-228.7014 542.4211,-206.8248 567.2941,-180 569.3111,-177.8247 571.153,-175.224 572.7286,-172.6847"/>
<polygon fill="#000000" stroke="#000000" points="575.8273,-174.3122 577.4718,-163.8457 569.6593,-171.0022 575.8273,-174.3122"/>
</g>
<!-- n0 -->
<g id="node16" class="node">
<title>n0</title>
<ellipse fill="none" stroke="#000000" cx="538.2941" cy="-90" rx="60.3893" ry="18"/>
<text text-anchor="middle" x="538.2941" y="-86.3" font-family="Times,serif" font-size="14.00" fill="#000000">100.0 70.0</text>
</g>
<!-- n12&#45;&gt;n0 -->
<g id="edge15" class="edge">
<title>n12&#45;&gt;n0</title>
<path fill="none" stroke="#000000" d="M577.3053,-160.2202C573.9759,-154.2272 562.8478,-134.1967 553.3247,-117.055"/>
<polygon fill="#000000" stroke="#000000" points="556.1749,-114.9784 548.2589,-107.9366 550.0558,-118.3779 556.1749,-114.9784"/>
</g>
<!-- n10 -->
<g id="node17" class="node">
<title>n10</title>
<ellipse fill="#000000" stroke="#000000" cx="618.2941" cy="-90" rx="1.8" ry="1.8"/>
</g>
<!-- n12&#45;&gt;n10 -->
<g id="edge16" class="edge">
<title>n12&#45;&gt;n10</title>
<path fill="none" stroke="#000000" d="M579.2829,-160.2202C583.7793,-152.1266 602.4991,-118.431 612.2807,-100.8242"/>
<polygon fill="#000000" stroke="#000000" points="615.543,-102.1589 617.3399,-91.7176 609.4239,-98.7594 615.543,-102.1589"/>
</g>
<!-- n2 -->
<g id="node18" class="node">
<title>n2</title>
<ellipse fill="none" stroke="#000000" cx="554.2941" cy="-18" rx="54.6905" ry="18"/>
<text text-anchor="middle" x="554.2941" y="-14.3" font-family="Times,serif" font-size="14.00" fill="#000000">90.0 80.0</text>
</g>
<!-- n10&#45;&gt;n2 -->
<g id="edge17" class="edge">
<title>n10&#45;&gt;n2</title>
<path fill="none" stroke="#000000" d="M617.3861,-88.2272C615.6436,-84.8975 611.6181,-77.545 607.2941,-72 599.2163,-61.6412 589.3621,-51.1354 580.352,-42.1782"/>
<polygon fill="#000000" stroke="#000000" points="582.645,-39.5258 573.0394,-35.0555 577.7608,-44.5402 582.645,-39.5258"/>
</g>
<!-- n3 -->
<g id="node19" class="node">
<title>n3</title>
<ellipse fill="none" stroke="#000000" cx="681.2941" cy="-18" rx="54.6905" ry="18"/>
<text text-anchor="middle" x="681.2941" y="-14.3" font-family="Times,serif" font-size="14.00" fill="#000000">85.0 75.0</text>
</g>
<!-- n10&#45;&gt;n3 -->
<g id="edge18" class="edge">
<title>n10&#45;&gt;n3</title>
<path fill="none" stroke="#000000" d="M619.61,-88.4962C624.6972,-82.6821 643.5677,-61.1159 659.1118,-43.3512"/>
<polygon fill="#000000" stroke="#000000" points="662.0071,-45.3574 665.9581,-35.5269 656.739,-40.7479 662.0071,-45.3574"/>
</g>
</g>
</svg>
